# xmcd
#
# Track frame offsets: 
#        150
#        11063
#        25293
#        37812
#        53005
#        67858
#        81615
#        99466
#        112993
#        123545
#        143065
#        154711
#        169253
#        182408
#        198839
#        230142
#        258213
#        272193
#        286135
#        305359
#        310091
#
# Disc length: 4622 seconds
#
# Revision: 1
# Processed by: cddbd v1.5.2PL0 Copyright (c) Steve Scherf et al.
# Submitted via: ExactAudioCopy v1.1
#
DISCID=18120c15
DTITLE=Benny Goodman - CD4_Complete Soundtrack of The Benny Goodman St
DTITLE=ory
DYEAR=2006
DGENRE=Jazz
TTITLE0=Let's Dance
TTITLE1=Down South Camp Meetin'
TTITLE2=King Porter Stomp
TTITLE3=It's Been So Long
TTITLE4=Roll 'Em
TTITLE5=Bugle Call Rag
TTITLE6=Don't Be That Way
TTITLE7=You Turned The Tables On Me
TTITLE8=Goody Goody
TTITLE9=Slipped Disc
TTITLE10=Stompin' At The Savoy
TTITLE11=One O'Clock Jump
TTITLE12=Memories Of You
TTITLE13=China Boy
TTITLE14=Moonglow
TTITLE15=Avalon
TTITLE16=And The Angels Sing
TTITLE17=Jersey Bounce
TTITLE18=Sometimes I'm Happy
TTITLE19=Shine
TTITLE20=Sing, Sing, Sing
EXTD=YEAR: 2007
EXTT0=
EXTT1=
EXTT2=
EXTT3=
EXTT4=
EXTT5=
EXTT6=
EXTT7=
EXTT8=
EXTT9=
EXTT10=
EXTT11=
EXTT12=
EXTT13=
EXTT14=
EXTT15=
EXTT16=
EXTT17=
EXTT18=
EXTT19=
EXTT20=
PLAYORDER=
